# xmcd
#
# Track frame offsets: 
#        150
#        12295
#        27640
#        42215
#        54867
#        68792
#        82450
#        93262
#        105257
#        120775
#
# Disc length: 1833 seconds
#
# Revision: 4
# Processed by: cddbd v1.5.2PL0 Copyright (c) Steve Scherf et al.
# Submitted via: ExactAudioCopy v0.95b4
#
DISCID=7307270a
DTITLE=Chris LeDoux - Melodies And Memories
DYEAR=1984
DGENRE=Country
TTITLE0=I Can't Ride The Broncs Anymore
TTITLE1=Melodies And Memories
TTITLE2=Even Cowboys Like A Little Rock And Roll
TTITLE3=Something In The Wind
TTITLE4=Copenhagen Junkie
TTITLE5=Working Cowboy Blues
TTITLE6=The Wild Bunch Rides Again
TTITLE7=The Rodeo Hand
TTITLE8=The Feeling Comes Back
TTITLE9=God Must Be A Cowboay
EXTD=
EXTT0=
EXTT1=
EXTT2=
EXTT3=
EXTT4=
EXTT5=
EXTT6=
EXTT7=
EXTT8=
EXTT9=
PLAYORDER=
